<svg width="10" height="10" fill="none" xmlns="http://www.w3.org/2000/svg"><path d="M5.005 0a5 5 0 11-.01 10 5 5 0 01.01-10zm-.382 3.8H3.73a.73.73 0 00-.192.027.186.186 0 00-.146.155.178.178 0 00.1.206c.096.045.2.073.305.082.278.013.39.135.348.421-.078.535-.183 1.066-.273 1.6-.061.36-.112.721-.171 1.081-.08.485.373.94.732 1 .212.03.427.044.642.041a1.671 1.671 0 001.215-.526c.057-.053.1-.12.125-.193a.237.237 0 00-.042-.184.18.18 0 00-.157-.017c-.082.027-.155.083-.235.118a1.45 1.45 0 01-.292.1.285.285 0 01-.352-.254.963.963 0 01-.01-.282c.035-.232.083-.462.125-.692.114-.627.23-1.255.347-1.883.032-.172.086-.341.05-.522a.3.3 0 00-.326-.278h-.901zm.544-2.224a.908.908 0 10-.08 1.81.908.908 0 00.08-1.808v-.002z" fill="#7A7A7A"/></svg>