<svg width="14" height="14" fill="none" xmlns="http://www.w3.org/2000/svg"><path d="M10.51 7.237v5.818a.945.945 0 01-.944.945H.945A.946.946 0 010 13.055V4.434a.946.946 0 01.945-.945h5.818a.304.304 0 11-.002.609H.945a.336.336 0 00-.336.336v8.621a.336.336 0 00.336.336h8.621a.336.336 0 00.336-.336V7.24a.309.309 0 01.246-.3.304.304 0 01.363.298zM5.046 8.955a.103.103 0 00.116.023l1.348-.547c.026-.01.05-.023.076-.035l-.981-.981c-.012.025-.025.05-.035.076l-.547 1.348a.103.103 0 00.023.116zM13.891.702l-.593-.593a.372.372 0 00-.526 0l-.856.856 1.119 1.12.856-.857a.372.372 0 000-.526zM5.92 6.962a1.606 1.606 0 00-.12.133L6.906 8.2c.047-.037.091-.077.134-.119l5.738-5.738-1.12-1.119L5.92 6.961z" fill="#7A7A7A"/></svg>