<svg width="16" height="18" fill="none" xmlns="http://www.w3.org/2000/svg"><path d="M10.713 0H5.737c-.643 0-1.164.522-1.164 1.164v1.204H.8v1.204h1.425v13.224c0 .662.542 1.204 1.204 1.204h9.592c.662 0 1.204-.542 1.204-1.204V3.572h1.425V2.368h-3.773V1.164C11.877.502 11.355 0 10.713 0zM5.777 1.184h4.876v1.164H5.777V1.184zm7.244 15.572H3.429V3.572h9.592v13.184z" fill="#FF6767"/><path d="M8.827 5.458H7.623v9.251h1.204V5.46zm2.207 0H9.83v9.251h1.204V5.46zm-4.414 0H5.414v9.251H6.62V5.46z" fill="#FF6767"/></svg>