<svg width="14" height="14" fill="none" xmlns="http://www.w3.org/2000/svg"><path d="M13.733 10.313L8.62 1.753A1.855 1.855 0 007 .84c-.678 0-1.282.339-1.62.913l-5.113 8.56a1.868 1.868 0 00-.015 1.9c.34.605.958.958 1.636.958h10.224c.693 0 1.297-.353 1.636-.957a1.869 1.869 0 00-.015-1.9zM7 11.168a.792.792 0 01-.796-.796c0-.442.354-.796.796-.796.442 0 .796.354.796.796a.792.792 0 01-.796.796zm.855-6.056l-.28 3.286a.574.574 0 01-.62.515.567.567 0 01-.515-.515l-.28-3.286a.858.858 0 011.71-.147c-.015.044-.015.103-.015.147z" fill="#FF6767"/></svg>