<svg width="20" height="20" fill="none" xmlns="http://www.w3.org/2000/svg"><circle cx="10" cy="10" r="10" fill="#F4F4F4"/><g clip-path="url(#clip0_75:444)"><path d="M15 13.7c0 .7-.572 1.272-1.271 1.272H6.27A1.275 1.275 0 015 13.7V7.345c0-.699.572-1.27 1.271-1.27H8.03v-.797c0-.239.363-.239.363 0v.796h3.214V5.28c0-.239.363-.239.363 0v.796h1.759c.698 0 1.271.572 1.271 1.271V13.7zm-2.03-2.136a.364.364 0 11-.002.727.364.364 0 01.002-.728zm0-1.89a.363.363 0 110 .726.363.363 0 010-.726zm-1.919 1.89a.363.363 0 110 .729.363.363 0 010-.73zm0-1.89a.364.364 0 010 .727.366.366 0 01-.364-.364c0-.2.165-.363.364-.363zm-1.92 1.89a.364.364 0 11-.002.727.364.364 0 01.002-.728zm0-1.89a.364.364 0 11-.001.727.364.364 0 01.001-.727zm-1.92 1.89a.364.364 0 11-.002.727.364.364 0 01.002-.728zm0-1.89a.363.363 0 110 .726.363.363 0 010-.726zm7.426-1.333H5.363v5.36c0 .499.409.908.908.908h7.458a.907.907 0 00.64-.268.907.907 0 00.268-.64V8.34zm-9.274-.364h9.274v-.63c0-.5-.409-.909-.908-.909H11.97v.071c0 .239-.363.239-.363 0v-.07H8.393v.07c0 .239-.363.239-.363 0v-.07H6.27a.91.91 0 00-.908.907v.63z" fill="#7A7A7A" stroke="#7A7A7A" stroke-width=".3"/></g><defs><clipPath id="clip0_75:444"><path fill="#fff" transform="translate(5 5)" d="M0 0h10v10H0z"/></clipPath></defs></svg>