<svg width="20" height="20" fill="none" xmlns="http://www.w3.org/2000/svg"><circle cx="10" cy="10" r="10" fill="#F4F4F4"/><path d="M14.967 14.107a.364.364 0 01.106.25c0 .093-.04.184-.106.252a.392.392 0 01-.26.102.392.392 0 01-.26-.102.365.365 0 01-.107-.251.36.36 0 01.107-.251.395.395 0 01.52 0zm-5.155-8.74a.397.397 0 01.376 0l5.617 3.044a.36.36 0 010 .64l-.784.424.002.025v3.679a.375.375 0 01-.383.367.378.378 0 01-.38-.317l-.003-.05v-3.29l-.737.399v2.65a.33.33 0 01-.192.296 7.814 7.814 0 01-6.656 0 .333.333 0 01-.189-.25l-.003-.047v-2.65L4.194 9.05a.36.36 0 01-.049-.608l.049-.031 5.617-3.044zm3.017 5.296l-2.64 1.43a.397.397 0 01-.377 0l-2.641-1.43v2.064l.168.071a7.1 7.1 0 005.322 0l.168-.071v-2.064zM10 6.108L5.161 8.73 10 11.352l3.49-1.891-2.897-1.091a.364.364 0 01-.233-.429l.016-.047a.387.387 0 01.447-.223l.05.015 3.475 1.31.49-.266L10 6.108z" fill="#7A7A7A"/></svg>