<svg width="30" height="30" fill="none" xmlns="http://www.w3.org/2000/svg"><circle cx="15" cy="15" r="15" fill="#77C34D"/><path d="M22.45 21.16c.1.101.16.239.16.377s-.06.276-.16.376a.59.59 0 01-.39.154.59.59 0 01-.39-.154.547.547 0 01-.16-.376.55.55 0 01.16-.377.591.591 0 01.78 0zM14.717 8.051a.596.596 0 01.566 0l8.425 4.566a.54.54 0 010 .958l-1.177.637.004.038v5.518a.563.563 0 01-.575.551.567.567 0 01-.569-.476l-.005-.075-.002-4.934-1.104.598v3.974a.495.495 0 01-.288.446 11.72 11.72 0 01-9.984 0 .499.499 0 01-.284-.376l-.005-.07v-3.974l-3.427-1.857a.539.539 0 01-.073-.912l.073-.046 8.425-4.566zm4.526 7.943l-3.96 2.147a.596.596 0 01-.566 0l-3.96-2.147-.001 3.096.252.108a10.658 10.658 0 007.984 0l.251-.108v-3.096zM15 9.163l-7.258 3.933L15 17.028l5.234-2.836-4.345-1.637a.546.546 0 01-.348-.643l.023-.07a.58.58 0 01.67-.335l.075.023 5.213 1.963.735-.397L15 9.163z" fill="#F4F4F4"/></svg>