<svg width="20" height="20" fill="none" xmlns="http://www.w3.org/2000/svg"><circle cx="10" cy="10" r="10" fill="#F4F4F4"/><path d="M10 5C7.231 5 4.698 6.706 3.053 9.679a.418.418 0 000 .407C4.698 13.059 7.23 14.764 10 14.764s5.302-1.705 6.947-4.678a.418.418 0 000-.407C15.302 6.706 12.77 5 10 5zm0 8.95c-2.42 0-4.654-1.478-6.159-4.068C5.346 7.293 7.575 5.814 10 5.814s4.654 1.479 6.159 4.068c-1.505 2.59-3.738 4.069-6.159 4.069zm0-6.916c-.538 0-1.065.167-1.512.48a2.824 2.824 0 00-1.003 1.278 2.97 2.97 0 00-.155 1.646c.105.552.364 1.06.745 1.458.38.398.866.67 1.394.78.528.11 1.075.053 1.573-.162a2.762 2.762 0 001.222-1.05 2.942 2.942 0 00.458-1.582 2.92 2.92 0 00-.798-2.013A2.666 2.666 0 0010 7.034zm0 4.882c-.385 0-.76-.119-1.08-.342a2.017 2.017 0 01-.717-.913 2.121 2.121 0 01-.11-1.176c.075-.394.26-.757.532-1.041a1.92 1.92 0 01.996-.557 1.865 1.865 0 011.123.116c.356.154.66.415.873.75a2.101 2.101 0 01-.243 2.567 1.905 1.905 0 01-1.374.596z" fill="#7A7A7A"/></svg>