<svg width="30" height="30" fill="none" xmlns="http://www.w3.org/2000/svg"><circle cx="15" cy="15" r="15" fill="#77C34D"/><g clip-path="url(#clip0_75:1000)" fill="#F4F4F4" stroke="#F4F4F4" stroke-width=".3"><path d="M14.99 16.638a.267.267 0 01-.264-.263v-3.069c0-.131.11-.263.263-.263.154 0 .263.11.263.263v3.069a.283.283 0 01-.263.263z"/><path d="M14.989 19.684a2.825 2.825 0 01-1.973-.811.252.252 0 010-.373.25.25 0 01.372 0c.154.154.33.285.527.395.657.35 1.49.35 2.17 0 .197-.11.372-.241.526-.395.043-.044.131-.087.197-.066l6.532.526-2.411-5.786c-.526-.241-3.507-1.469-5.787.35a.247.247 0 01-.35-.043.247.247 0 01.043-.351c2.784-2.214 6.27-.439 6.423-.373a.225.225 0 01.11.132l2.608 6.247a.235.235 0 01-.022.241.27.27 0 01-.22.11l-6.838-.548a2.65 2.65 0 01-.57.394c-.439.241-.877.35-1.337.35z"/><path d="M6.243 19.487a.23.23 0 01-.197-.11c-.044-.065-.066-.175-.022-.24l2.608-6.27a.225.225 0 01.11-.131c.153-.066 3.66-1.841 6.422.372.11.088.132.242.044.351a.247.247 0 01-.35.044c-2.302-1.82-5.261-.592-5.787-.35L6.66 18.938l6.532-.526c.131-.022.263.088.285.241.022.132-.088.263-.242.285l-6.992.548zm15.322-1.183h-.066a18.633 18.633 0 01-1.447-.482c-1.928-.68-3.726-1.337-4.844.35-.087.11-.24.154-.35.066-.11-.087-.154-.24-.066-.35 1.337-2.017 3.42-1.272 5.436-.548.46.175.964.35 1.425.482.131.044.219.175.175.307a.285.285 0 01-.263.175z"/><path d="M8.413 18.304c-.11 0-.219-.066-.24-.175-.045-.132.043-.285.174-.307.46-.131.943-.307 1.425-.482 2.017-.724 4.121-1.469 5.436.548.088.11.044.285-.065.35-.11.088-.285.044-.351-.065-1.118-1.688-2.915-1.03-4.844-.351-.483.175-.965.35-1.447.482h-.088z"/></g><defs><clipPath id="clip0_75:1000"><path fill="#fff" transform="translate(6 6)" d="M0 0h18v18H0z"/></clipPath></defs></svg>