<svg width="20" height="20" fill="none" xmlns="http://www.w3.org/2000/svg"><circle cx="10" cy="10" r="10" fill="#F4F4F4"/><g clip-path="url(#clip0_75:2698)" fill="#7A7A7A" stroke="#7A7A7A" stroke-width=".3"><path d="M9.991 11.274a.207.207 0 01-.204-.205V8.682c0-.102.085-.204.204-.204.12 0 .205.085.205.204v2.387a.22.22 0 01-.205.204z"/><path d="M9.991 13.643a2.196 2.196 0 01-1.534-.63.196.196 0 010-.29.196.196 0 01.29 0c.119.118.255.22.409.306.511.273 1.16.273 1.688 0a1.84 1.84 0 00.409-.307c.034-.034.102-.068.153-.051l5.08.41-1.875-4.502c-.409-.187-2.727-1.142-4.5.273a.192.192 0 01-.273-.034.192.192 0 01.034-.273c2.165-1.722 4.876-.34 4.995-.29a.174.174 0 01.085.103l2.03 4.858a.183.183 0 01-.018.188.21.21 0 01-.17.085l-5.32-.426c-.136.12-.272.222-.443.307a2.109 2.109 0 01-1.04.273z"/><path d="M3.19 13.49a.179.179 0 01-.154-.085c-.034-.052-.052-.137-.017-.188l2.028-4.876a.175.175 0 01.086-.102c.119-.051 2.847-1.432 4.995.29a.192.192 0 01.034.272.192.192 0 01-.273.034c-1.79-1.415-4.091-.46-4.5-.272l-1.876 4.5 5.08-.409c.103-.017.205.069.222.188.017.102-.068.204-.187.222l-5.439.426zm11.916-.92h-.051c-.375-.103-.75-.239-1.125-.375-1.5-.529-2.899-1.04-3.768.272-.068.086-.188.12-.273.051-.085-.068-.12-.187-.051-.272 1.04-1.569 2.66-.99 4.228-.427.358.137.75.273 1.108.376.103.034.17.136.137.238a.222.222 0 01-.205.137z"/><path d="M4.877 12.57c-.085 0-.17-.052-.188-.137-.034-.102.034-.221.137-.238.358-.103.733-.24 1.108-.376 1.568-.562 3.205-1.142 4.228.427.068.085.034.221-.051.272-.085.069-.222.035-.273-.05-.87-1.313-2.267-.802-3.768-.273a14.5 14.5 0 01-1.125.375h-.068z"/></g><defs><clipPath id="clip0_75:2698"><path fill="#fff" transform="translate(3 3)" d="M0 0h14v14H0z"/></clipPath></defs></svg>