<svg width="30" height="30" fill="none" xmlns="http://www.w3.org/2000/svg"><circle cx="15" cy="15" r="15" fill="#77C34D"/><path fill-rule="evenodd" clip-rule="evenodd" d="M14.722 23.803a8.722 8.722 0 100-17.443 8.722 8.722 0 000 17.443zm0-.556a8.165 8.165 0 100-16.33 8.165 8.165 0 000 16.33z" fill="#F4F4F4" stroke="#F4F4F4" stroke-width=".3"/><path fill-rule="evenodd" clip-rule="evenodd" d="M20.082 13.708c-.438.398-1.065.631-1.742.631-.676 0-1.304-.233-1.741-.631-.157-.143-.392.047-.285.23a2.336 2.336 0 002.026 1.143c.85 0 1.62-.442 2.027-1.143.107-.183-.128-.373-.285-.23zm-7.237 0c-.438.398-1.066.631-1.742.631-.676 0-1.304-.233-1.742-.631-.157-.143-.391.047-.285.23a2.336 2.336 0 002.027 1.143c.85 0 1.62-.442 2.027-1.143.106-.183-.129-.373-.286-.23zm2.99 5.271a1.113 1.113 0 10-2.227 0 1.113 1.113 0 002.227 0zm1.763-1.083a.186.186 0 100-.37h-1.3a.186.186 0 000 .37h1.3z" fill="#F4F4F4" stroke="#F4F4F4" stroke-width=".3"/><path fill-rule="evenodd" clip-rule="evenodd" d="M17.729 17.842a.186.186 0 00-.262-.262l-1.3 1.299a.186.186 0 00.263.262l1.299-1.299z" fill="#F4F4F4" stroke="#F4F4F4" stroke-width=".3"/><path fill-rule="evenodd" clip-rule="evenodd" d="M17.598 19.195a.186.186 0 000-.37h-1.3a.186.186 0 000 .37h1.3zm6.031-4.453a.371.371 0 000-.742h-2.413a.371.371 0 000 .742h2.413z" fill="#F4F4F4" stroke="#F4F4F4" stroke-width=".3"/><path fill-rule="evenodd" clip-rule="evenodd" d="M23.91 14.614a.371.371 0 00-.562-.486l-2.412 2.784a.371.371 0 00.56.486l2.413-2.784z" fill="#F4F4F4" stroke="#F4F4F4" stroke-width=".3"/><path fill-rule="evenodd" clip-rule="evenodd" d="M23.629 17.526a.371.371 0 000-.742h-2.413a.371.371 0 000 .742h2.413zm-3.433-.743a.278.278 0 000-.556h-1.67a.278.278 0 000 .556h1.67z" fill="#F4F4F4" stroke="#F4F4F4" stroke-width=".3"/><path fill-rule="evenodd" clip-rule="evenodd" d="M20.403 16.691a.278.278 0 00-.414-.372l-1.67 1.855a.278.278 0 00.414.373l1.67-1.856z" fill="#F4F4F4" stroke="#F4F4F4" stroke-width=".3"/><path fill-rule="evenodd" clip-rule="evenodd" d="M20.196 18.639a.278.278 0 100-.557h-1.67a.278.278 0 000 .557h1.67z" fill="#F4F4F4" stroke="#F4F4F4" stroke-width=".3"/></svg>