<svg width="20" height="20" fill="none" xmlns="http://www.w3.org/2000/svg"><circle cx="10" cy="10" r="10" fill="#F4F4F4"/><g clip-path="url(#clip0_75:2685)" fill="#7A7A7A"><path d="M13.184 6.752A3.217 3.217 0 009.992 3.84a3.22 3.22 0 00-3.205 3.195v1.012a3.177 3.177 0 00.666 1.955l.181.235.472-.363-.181-.237a2.552 2.552 0 01-.47-.983l1.066-1.672c.328.236.722.363 1.127.362H12.6v.703a2.584 2.584 0 01-.54 1.592l-.182.24.47.363.184-.236a3.17 3.17 0 00.664-1.96V6.753h-.013zM8.7 6.361l-.298-.298-1.02 1.6V7.03a2.622 2.622 0 012.609-2.61 2.62 2.62 0 012.594 2.331H9.648a1.34 1.34 0 01-.947-.391zm7.556 9.877h-.596v-.528a3.93 3.93 0 00-.944-2.555l-.194-.227.447-.387.2.226a4.526 4.526 0 011.087 2.943v.528zm-11.916 0h-.596v-.528c0-1.079.386-2.123 1.088-2.943l.195-.226.447.387-.194.227a3.93 3.93 0 00-.94 2.555v.528z"/><path d="M15.064 15.643V9.684H4.936v5.957H3v.596h14v-.595h-1.936zm-9.532 0V10.28h8.936v5.361H5.532z"/><path d="M10 14.45h-.009a1.341 1.341 0 01-.951-.406 1.347 1.347 0 010-1.867 1.341 1.341 0 011.907-.014l.164.164-.466.783.466.784-.164.164a1.32 1.32 0 01-.947.393zm0-2.084a.745.745 0 00-.53.226.763.763 0 000 1.043c.14.141.331.22.53.22a.744.744 0 00.349-.083l-.398-.662.393-.66a.75.75 0 00-.344-.084zm-3.425 1.191h-.596v.894h.596v-.894zm0-2.382h-.596v1.936h.596v-1.936z"/></g><defs><clipPath id="clip0_75:2685"><path fill="#fff" transform="translate(3 3)" d="M0 0h14v14H0z"/></clipPath></defs></svg>