<svg width="20" height="20" fill="none" xmlns="http://www.w3.org/2000/svg"><circle cx="10" cy="10" r="10" fill="#F4F4F4"/><path d="M13.727 4H6.343a.693.693 0 00-.693.692v10.616a.693.693 0 00.693.692h7.384a.693.693 0 00.693-.692V4.692A.693.693 0 0013.727 4zm.231 11.308a.231.231 0 01-.23.23H6.342a.231.231 0 01-.231-.23V4.692a.231.231 0 01.23-.23h7.385a.231.231 0 01.231.23v10.616zM9.343 6.077a.692.692 0 111.384 0 .692.692 0 01-1.384 0zm-1.154 3a1.846 1.846 0 013.692 0 .231.231 0 01-.23.23H8.42a.23.23 0 01-.231-.23zm4.615.923H7.266a.462.462 0 00-.462.461v.462a.462.462 0 00.462.462h5.538a.462.462 0 00.462-.462v-.462a.462.462 0 00-.462-.461zm0 .923H7.266v-.462h5.538v.462zm0 1.154H7.266a.462.462 0 00-.462.462V13a.462.462 0 00.462.461h5.538a.462.462 0 00.462-.461v-.461a.462.462 0 00-.462-.462zm0 .923H7.266v-.461h5.538V13zm-1.384 1.385a.23.23 0 01-.231.23H8.88a.23.23 0 110-.461h2.308a.23.23 0 01.23.23z" fill="#7A7A7A"/></svg>