<svg width="30" height="30" fill="none" xmlns="http://www.w3.org/2000/svg"><circle cx="15" cy="15" r="15" fill="#77C34D"/><path fill-rule="evenodd" clip-rule="evenodd" d="M15 24a9 9 0 100-18 9 9 0 000 18zm0-.575a8.425 8.425 0 100-16.85 8.425 8.425 0 000 16.85z" fill="#F4F4F4" stroke="#F4F4F4" stroke-width=".3"/><path d="M10.787 15a1.34 1.34 0 100-2.68 1.34 1.34 0 000 2.68zm8.425 0a1.34 1.34 0 100-2.68 1.34 1.34 0 000 2.68z" fill="#F4F4F4" stroke="#F4F4F4" stroke-width=".3"/><path fill-rule="evenodd" clip-rule="evenodd" d="M18.98 18.09c-.977 1.067-2.42 1.697-3.98 1.697-1.559 0-3.003-.63-3.98-1.697-.16-.175-.434.043-.298.239A5.192 5.192 0 0015 20.553a5.192 5.192 0 004.278-2.224c.136-.196-.137-.415-.298-.239z" fill="#F4F4F4" stroke="#F4F4F4" stroke-width=".3"/></svg>