<svg width="20" height="20" fill="none" xmlns="http://www.w3.org/2000/svg"><circle cx="10" cy="10" r="10" fill="#F4F4F4"/><g clip-path="url(#clip0_75:437)"><path fill-rule="evenodd" clip-rule="evenodd" d="M14.299 7.54l.428-.237a.184.184 0 01.265.211l-.286 1a.184.184 0 01-.228.126l-1-.286a.184.184 0 01-.038-.338l.537-.298a4.598 4.598 0 10.033 4.437.184.184 0 11.324.175 4.966 4.966 0 11-.035-4.79zm-4.34 2.844a.184.184 0 00.26.009l1.613-1.506a.184.184 0 00-.25-.269l-1.48 1.38L7.97 7.712a.184.184 0 00-.269.25l2.258 2.422z" fill="#7A7A7A" stroke="#7A7A7A" stroke-width=".3"/></g><defs><clipPath id="clip0_75:437"><path fill="#fff" transform="translate(5 5)" d="M0 0h10v10H0z"/></clipPath></defs></svg>