<svg width="50" height="50" fill="none" xmlns="http://www.w3.org/2000/svg"><path d="M19.585 25.953a2.65 2.65 0 100-5.302 2.65 2.65 0 000 5.302zm13.435 7.771a11.36 11.36 0 01-16.002 0 .76.76 0 10-1.083 1.067 12.838 12.838 0 0018.176 0 .758.758 0 000-1.067.76.76 0 00-1.09 0zm-2.567-7.771a2.65 2.65 0 100-5.302 2.65 2.65 0 000 5.302z" fill="#7A7A7A"/><path d="M48.577 19.296c-2.666-3.583-7.15-3.03-8.974-2.659-1.288-4.468-5.84-6.816-7.362-7.505V5.913a.758.758 0 00-1.393-.432 7.755 7.755 0 01-2.454 2.121 8.127 8.127 0 00-1.47-5.915.757.757 0 00-.757-.235.757.757 0 00-.553.621s-.59 3.613-2.689 5.097c-1.302.212-8.853 1.773-12.375 9.498-1.727-.402-6.362-1.03-9.088 2.628a7.816 7.816 0 00-1.432 5.24c.19 2.629 1.296 7.006 6.552 7.794-.228 1.848-.402 6.4 2.643 10.217s8.33 5.718 15.715 5.733h.091c7.4 0 12.686-1.939 15.715-5.733 3.03-3.795 2.878-8.331 2.643-10.217 5.256-.757 6.385-5.165 6.574-7.793a7.785 7.785 0 00-1.386-5.241zm-38.201 2.136a.757.757 0 01-.954.484c-.046 0-2.272-.681-3.333.758a2.484 2.484 0 00-.439 1.704.757.757 0 01-.704.81h-.053a.757.757 0 01-.758-.704 4.052 4.052 0 01.758-2.72c1.734-2.317 4.885-1.332 5.013-1.287a.758.758 0 01.47.954zm14.647 22.1c-7.914 0-14.39-4.159-14.39-9.278 0-2.333 1.296-4.544 3.674-6.226a7.46 7.46 0 01-1.356-4.31 7.104 7.104 0 016.915-7.27 6.741 6.741 0 015.157 2.386 6.815 6.815 0 015.128-2.386 7.097 7.097 0 016.907 7.27 7.513 7.513 0 01-1.356 4.31c2.378 1.704 3.711 3.893 3.711 6.226 0 5.12-6.475 9.277-14.39 9.277zm20.131-18.344h-.053a.757.757 0 01-.704-.81 2.545 2.545 0 00-.44-1.704c-1.09-1.462-3.31-.758-3.332-.758a.758.758 0 11-.47-1.439c.137-.045 3.288-1.03 5.014 1.288.57.787.838 1.751.758 2.719a.757.757 0 01-.773.704z" fill="#7A7A7A"/></svg>