<svg width="30" height="30" fill="none" xmlns="http://www.w3.org/2000/svg"><path d="M25.55 0H4.45A4.462 4.462 0 000 4.45v21.1A4.462 4.462 0 004.45 30h21.1A4.463 4.463 0 0030 25.55V4.45A4.463 4.463 0 0025.55 0zm1.95 25.55a1.95 1.95 0 01-1.95 1.95H4.45a1.95 1.95 0 01-1.95-1.95V4.45A1.95 1.95 0 014.45 2.5h21.1a1.95 1.95 0 011.95 1.95v21.1z" fill="#CCC"/><path d="M15 7.5a7.5 7.5 0 100 15 7.5 7.5 0 000-15zM15 20a4.999 4.999 0 110-9.998A4.999 4.999 0 0115 20zm8.125-11.25a1.875 1.875 0 100-3.75 1.875 1.875 0 000 3.75z" fill="#CCC"/></svg>