<svg width="27" height="30" fill="none" xmlns="http://www.w3.org/2000/svg"><g clip-path="url(#clip0_92:3041)"><path d="M19.668 10.83a11.775 11.775 0 006.87 2.198v-4.93a6.94 6.94 0 01-1.442-.15v3.88c-2.562 0-4.934-.815-6.87-2.199v10.06A9.112 9.112 0 019.112 28.8a9.071 9.071 0 01-5.073-1.541A9.086 9.086 0 0010.555 30a9.112 9.112 0 009.113-9.111v-10.06zm1.78-4.974a6.87 6.87 0 01-1.78-4.022V1.2h-1.367a6.901 6.901 0 003.147 4.656zM7.223 23.398a4.168 4.168 0 014.583-6.495v-5.04a9.19 9.19 0 00-1.443-.083v3.922a4.168 4.168 0 00-3.14 7.696z" fill="#FF004F"/><path d="M18.225 9.63a11.777 11.777 0 006.87 2.198v-3.88a6.895 6.895 0 01-3.647-2.092A6.901 6.901 0 0118.301 1.2h-3.592v19.69a4.169 4.169 0 01-7.486 2.509 4.167 4.167 0 011.875-7.891c.441 0 .866.068 1.265.195V11.78A9.112 9.112 0 004.04 27.26a9.07 9.07 0 005.073 1.54 9.112 9.112 0 009.112-9.111V9.629z" fill="#77C34D"/><path d="M25.096 7.947V6.898a6.87 6.87 0 01-3.648-1.042 6.89 6.89 0 003.648 2.091zM18.3 1.2a6.998 6.998 0 01-.076-.566V0h-4.959v19.689a4.168 4.168 0 01-6.043 3.708 4.169 4.169 0 007.487-2.509V1.2h3.59zm-7.938 10.58v-1.118a9.189 9.189 0 00-1.25-.085A9.114 9.114 0 000 19.69a9.102 9.102 0 004.04 7.57 9.112 9.112 0 016.323-15.48z" fill="#00F2EA"/></g><defs><clipPath id="clip0_92:3041"><path fill="#fff" d="M0 0h26.538v30H0z"/></clipPath></defs></svg>