<svg width="42" height="42" fill="none" xmlns="http://www.w3.org/2000/svg"><path d="M10.545 16.6h5.16v.792L12.537 25h-.876l3.168-7.608h-4.284V16.6zm9.207 3.492c.672.088 1.224.348 1.655.78.44.424.66.988.66 1.692 0 .8-.276 1.432-.828 1.896-.544.456-1.207.684-1.992.684-.623 0-1.18-.144-1.668-.432a2.345 2.345 0 01-1.032-1.236l.697-.408c.136.416.38.732.732.948.352.208.776.312 1.271.312.576 0 1.049-.152 1.416-.456.377-.312.564-.748.564-1.308s-.188-.992-.564-1.296c-.367-.312-.84-.468-1.416-.468v-.012l-.012.012h-.227l-.36-.552 2.087-2.856h-3.947V16.6h4.92v.792l-1.956 2.7zm4.992-.036c-.52 0-.956-.172-1.308-.516a1.748 1.748 0 01-.529-1.284c0-.504.177-.928.529-1.272a1.776 1.776 0 011.308-.528c.52 0 .956.176 1.308.528.352.344.527.768.527 1.272s-.172.932-.515 1.284c-.345.344-.785.516-1.32.516zm-.768-1.032c.2.208.456.312.768.312.311 0 .567-.104.768-.312.2-.208.3-.464.3-.768s-.1-.56-.3-.768a1.019 1.019 0 00-.768-.312c-.313 0-.569.104-.768.312-.2.208-.3.464-.3.768s.1.56.3.768zm-.648 4.836l5.628-6.324.515.288-5.64 6.324-.503-.288zm6.12.768c-.352.344-.788.516-1.308.516s-.957-.172-1.309-.516a1.748 1.748 0 01-.527-1.284c0-.504.176-.928.527-1.272a1.776 1.776 0 011.309-.528c.52 0 .956.176 1.308.528.351.344.527.768.527 1.272s-.176.932-.527 1.284zm-2.076-.516c.2.208.456.312.768.312.311 0 .567-.104.767-.312.2-.208.3-.464.3-.768s-.1-.56-.3-.768a1.019 1.019 0 00-.767-.312c-.313 0-.569.104-.768.312-.2.208-.3.464-.3.768s.1.56.3.768z" fill="#FFA767"/><path d="M40.5 21c0 7.147-3.844 13.396-9.58 16.792A19.407 19.407 0 0121 40.5C10.23 40.5 1.5 31.77 1.5 21S10.23 1.5 21 1.5 40.5 10.23 40.5 21z" stroke="#CCC"/><path d="M21 1c11.046 0 20 8.954 20 20 0 7.33-3.944 13.74-9.826 17.222A19.907 19.907 0 0121 41C9.954 41 1 32.046 1 21c0-2.09.32-4.106.916-6" stroke="#FFA767" stroke-width="2"/></svg>