<svg width="41" height="41" fill="none" xmlns="http://www.w3.org/2000/svg"><path d="M15.926 22.528v.792h-1.08V25h-.84v-1.68h-4.44v-.792l3.12-5.928h.924l-3.12 5.928h3.516V19.96h.84v2.568h1.08zm3.865-2.436c.672.088 1.224.348 1.656.78.44.424.66.988.66 1.692 0 .8-.276 1.432-.828 1.896-.544.456-1.208.684-1.992.684-.624 0-1.18-.144-1.668-.432a2.345 2.345 0 01-1.032-1.236l.696-.408c.136.416.38.732.732.948.352.208.776.312 1.272.312.576 0 1.048-.152 1.416-.456.376-.312.564-.748.564-1.308s-.188-.992-.564-1.296c-.368-.312-.84-.468-1.416-.468v-.012l-.012.012h-.228l-.36-.552 2.088-2.856h-3.948V16.6h4.92v.792l-1.956 2.7zm4.992-.036c-.52 0-.956-.172-1.308-.516a1.748 1.748 0 01-.528-1.284c0-.504.176-.928.528-1.272a1.776 1.776 0 011.308-.528c.52 0 .956.176 1.308.528.352.344.528.768.528 1.272s-.172.932-.516 1.284c-.344.344-.784.516-1.32.516zm-.768-1.032c.2.208.456.312.768.312s.568-.104.768-.312c.2-.208.3-.464.3-.768s-.1-.56-.3-.768a1.019 1.019 0 00-.768-.312c-.312 0-.568.104-.768.312-.2.208-.3.464-.3.768s.1.56.3.768zm-.648 4.836l5.628-6.324.516.288-5.64 6.324-.504-.288zm6.12.768c-.352.344-.788.516-1.308.516s-.956-.172-1.308-.516a1.748 1.748 0 01-.528-1.284c0-.504.176-.928.528-1.272a1.776 1.776 0 011.308-.528c.52 0 .956.176 1.308.528.352.344.528.768.528 1.272s-.176.932-.528 1.284zm-2.076-.516c.2.208.456.312.768.312s.568-.104.768-.312c.2-.208.3-.464.3-.768s-.1-.56-.3-.768a1.019 1.019 0 00-.768-.312c-.312 0-.568.104-.768.312-.2.208-.3.464-.3.768s.1.56.3.768z" fill="#FF6767"/><path d="M39.5 21c0 7.147-3.844 13.396-9.58 16.792A19.407 19.407 0 0120 40.5C9.23 40.5.5 31.77.5 21S9.23 1.5 20 1.5 39.5 10.23 39.5 21z" stroke="#CCC"/><path d="M20 1c11.046 0 20 8.9 20 19.88 0 7.287-3.944 13.659-9.826 17.12" stroke="#FF6767" stroke-width="2"/></svg>