<svg width="40" height="40" fill="none" xmlns="http://www.w3.org/2000/svg"><path d="M8.666 15.6h.72V24h-.84v-7.476l-1.884.564-.216-.72 2.22-.768zm7.798 7.368c-.552.784-1.332 1.176-2.34 1.176-1.008 0-1.792-.392-2.352-1.176-.552-.792-.828-1.848-.828-3.168s.276-2.372.828-3.156c.56-.792 1.344-1.188 2.352-1.188 1.008 0 1.788.396 2.34 1.188.56.784.84 1.836.84 3.156s-.28 2.376-.84 3.168zm-4.068-.564c.416.616.992.924 1.728.924s1.308-.308 1.716-.924c.416-.616.624-1.484.624-2.604s-.208-1.988-.624-2.604c-.408-.616-.98-.924-1.716-.924s-1.312.308-1.728.924c-.408.616-.612 1.484-.612 2.604s.204 1.988.612 2.604zm11.626.564c-.552.784-1.332 1.176-2.34 1.176-1.008 0-1.792-.392-2.352-1.176-.552-.792-.828-1.848-.828-3.168s.276-2.372.828-3.156c.56-.792 1.344-1.188 2.352-1.188 1.008 0 1.788.396 2.34 1.188.56.784.84 1.836.84 3.156s-.28 2.376-.84 3.168zm-4.068-.564c.416.616.992.924 1.728.924s1.308-.308 1.716-.924c.416-.616.624-1.484.624-2.604s-.208-1.988-.624-2.604c-.408-.616-.98-.924-1.716-.924s-1.312.308-1.728.924c-.408.616-.612 1.484-.612 2.604s.204 1.988.612 2.604zm7.829-3.348c-.52 0-.956-.172-1.308-.516a1.748 1.748 0 01-.528-1.284c0-.504.176-.928.528-1.272a1.776 1.776 0 011.308-.528c.52 0 .956.176 1.308.528.352.344.528.768.528 1.272s-.172.932-.516 1.284c-.344.344-.784.516-1.32.516zm-.768-1.032c.2.208.456.312.768.312s.568-.104.768-.312c.2-.208.3-.464.3-.768s-.1-.56-.3-.768a1.019 1.019 0 00-.768-.312c-.312 0-.568.104-.768.312-.2.208-.3.464-.3.768s.1.56.3.768zm-.648 4.836l5.628-6.324.516.288-5.64 6.324-.504-.288zm6.12.768c-.352.344-.788.516-1.308.516s-.956-.172-1.308-.516a1.748 1.748 0 01-.528-1.284c0-.504.176-.928.528-1.272a1.776 1.776 0 011.308-.528c.52 0 .956.176 1.308.528.352.344.528.768.528 1.272s-.176.932-.528 1.284zm-2.076-.516c.2.208.456.312.768.312s.568-.104.768-.312c.2-.208.3-.464.3-.768s-.1-.56-.3-.768a1.019 1.019 0 00-.768-.312c-.312 0-.568.104-.768.312-.2.208-.3.464-.3.768s.1.56.3.768z" fill="#77C34D"/><path d="M39 20c0 6.963-3.745 13.052-9.335 16.362A18.908 18.908 0 0120 39C9.507 39 1 30.493 1 20S9.507 1 20 1s19 8.507 19 19z" stroke="#77C34D" stroke-width="2"/></svg>